<svg width="87" height="19" viewBox="0 0 87 19" fill="none" xmlns="http://www.w3.org/2000/svg">
<path d="M19.1479 6.2769C19.1479 7.81844 18.7367 9.16936 17.9143 10.3297C17.1084 11.4734 15.9653 12.327 14.485 12.8906L17.3716 17.9628H11.327L8.88451 13.5868H7.45355L6.59004 17.9628H0.767517L4.22155 0.558263H11.9685C14.2383 0.558263 15.9982 1.06382 17.2482 2.07494C18.5147 3.06949 19.1479 4.47014 19.1479 6.2769ZM13.2514 6.84876C13.2514 5.67188 12.5277 5.08344 11.0803 5.08344H9.13122L8.31706 9.16108H10.7102C11.5162 9.16108 12.1412 8.96217 12.5853 8.56435C13.0293 8.14995 13.2514 7.57809 13.2514 6.84876Z" fill="white"/>
<path d="M31.7334 14.9294H25.146L23.419 17.9628H17.2758L28.2793 0.558263H34.0032L38.0987 17.9628H32.3008L31.7334 14.9294ZM30.9192 10.7026L30.0804 6.25203L27.5392 10.7026H30.9192Z" fill="white"/>
<path d="M57.4083 6.2769C57.4083 7.81844 56.9971 9.16936 56.1748 10.3297C55.3688 11.4734 54.2257 12.327 52.7454 12.8906L55.632 17.9628H49.5874L47.1449 13.5868H45.714L44.8504 17.9628H39.0279L42.482 0.558263H50.2289C52.4987 0.558263 54.2586 1.06382 55.5086 2.07494C56.7751 3.06949 57.4083 4.47014 57.4083 6.2769ZM51.5118 6.84876C51.5118 5.67188 50.7881 5.08344 49.3407 5.08344H47.3916L46.5775 9.16108H48.9706C49.7766 9.16108 50.4016 8.96217 50.8457 8.56435C51.2897 8.14995 51.5118 7.57809 51.5118 6.84876Z" fill="white"/>
<path d="M60.8653 0.558263H66.6878L63.2337 17.9628H57.4112L60.8653 0.558263Z" fill="white"/>
<path d="M75.7573 18.3606C73.9974 18.3606 72.4513 18.0374 71.119 17.3909C69.8032 16.7279 68.7835 15.808 68.0598 14.6311C67.3525 13.4542 66.9989 12.1033 66.9989 10.5783C66.9989 8.55606 67.4594 6.75759 68.3805 5.1829C69.318 3.59163 70.6092 2.35673 72.2539 1.47822C73.9152 0.599703 75.7902 0.160446 77.8791 0.160446C79.639 0.160446 81.1769 0.49196 82.4927 1.15499C83.825 1.80144 84.8447 2.71311 85.552 3.88999C86.2757 5.06687 86.6375 6.41779 86.6375 7.94276C86.6375 9.965 86.1688 11.7718 85.2313 13.363C84.3102 14.9377 83.019 16.1643 81.3578 17.0428C79.713 17.9214 77.8462 18.3606 75.7573 18.3606ZM76.2508 13.6117C77.1718 13.6117 77.9696 13.3713 78.6439 12.8906C79.3347 12.4099 79.8611 11.7635 80.2229 10.9513C80.5848 10.139 80.7657 9.25224 80.7657 8.29085C80.7657 7.26315 80.4614 6.44265 79.8528 5.82935C79.2607 5.21605 78.4383 4.9094 77.3857 4.9094C76.4646 4.9094 75.6586 5.14974 74.9678 5.63044C74.2935 6.11114 73.7754 6.75759 73.4135 7.5698C73.0517 8.38202 72.8707 9.26882 72.8707 10.2302C72.8707 11.2579 73.1668 12.0784 73.7589 12.6917C74.3675 13.305 75.1981 13.6117 76.2508 13.6117Z" fill="white"/>
</svg>
